<svg width="64" height="64" viewBox="0 0 64 64" fill="none" xmlns="http://www.w3.org/2000/svg">
<rect width="64" height="64" rx="32" fill="#0F1314"/>
<path d="M28.3824 56.6194L24.5044 40.0637L31.9563 47.3875L39.9404 39.9878L36.1384 56.6194L31.9563 52.8223L28.3824 56.6194Z" fill="#FED766"/>
<path fill-rule="evenodd" clip-rule="evenodd" d="M40.1893 39.5574C40.3781 39.6666 40.4737 39.886 40.4251 40.0986L36.6232 56.7303C36.5838 56.9025 36.456 57.0408 36.2875 57.0938C36.119 57.1467 35.9351 57.1063 35.8044 56.9876L31.9837 53.5186L28.7445 56.9602C28.619 57.0936 28.4303 57.1471 28.2535 57.0996C28.0766 57.0521 27.9402 56.9112 27.8985 56.7329L24.0205 40.1772C23.97 39.9617 24.068 39.7389 24.2609 39.6304C24.4538 39.522 24.6951 39.5541 24.853 39.7092L31.9664 46.7005L39.6026 39.6232C39.7625 39.475 40.0004 39.4483 40.1893 39.5574ZM39.0969 41.4476L32.2943 47.7522C32.0995 47.9327 31.7973 47.9283 31.6079 47.7422L25.3799 41.6212L28.6553 55.6043L31.5943 52.4816C31.7801 52.2842 32.0898 52.272 32.2905 52.4543L35.8433 55.68L39.0969 41.4476Z" fill="#0F1314"/>
<path d="M40.0163 39.9078L31.9609 47.3873L24.3427 39.8983C16.6201 31.7253 4.81004 22.4429 13.6306 8.49707C15.7597 20.9503 19.6377 21.5317 40.5486 17.3553C57.5814 15.0773 46.9359 32.9929 40.0163 39.9078Z" fill="#FED766"/>
<path fill-rule="evenodd" clip-rule="evenodd" d="M13.7281 8.00967C13.9299 8.05001 14.086 8.21053 14.1207 8.41338C14.651 11.5153 15.2815 13.8149 16.2264 15.4765C17.1561 17.1115 18.3938 18.1358 20.1922 18.6871C22.0206 19.2475 24.4523 19.3261 27.7702 18.9898C31.0815 18.6543 35.2239 17.9119 40.4513 16.8679C40.4617 16.8658 40.4722 16.864 40.4827 16.8626C44.7821 16.2876 47.5364 16.9543 48.9977 18.6176C50.4594 20.2813 50.4543 22.7444 49.7438 25.3166C48.3155 30.4879 43.8619 36.7677 40.3678 40.2595C40.3635 40.2638 40.3591 40.268 40.3546 40.2722L32.2992 47.7517C32.1044 47.9325 31.8019 47.9282 31.6124 47.7419L23.9942 40.2529C23.9916 40.2503 23.9891 40.2477 23.9865 40.2451C23.9848 40.2434 23.9831 40.2416 23.9814 40.2398C23.1773 39.3888 22.3223 38.52 21.4469 37.6304C18.1678 34.2983 14.602 30.6747 12.3481 26.6033C10.9105 24.0065 9.98715 21.1999 10.0001 18.1355C10.0131 15.0689 10.9637 11.7838 13.2105 8.23142C13.3205 8.05749 13.5263 7.96933 13.7281 8.00967ZM24.6978 39.5503C23.8635 38.6675 22.9884 37.7778 22.1008 36.8754C18.8338 33.5537 15.3989 30.0615 13.2179 26.1218C11.8403 23.6332 10.9823 20.9935 10.9944 18.1398C11.0051 15.6038 11.7031 12.8674 13.3792 9.88677C13.8705 12.3954 14.4763 14.4103 15.3621 15.968C16.4118 17.814 17.8497 19.009 19.9008 19.6377C21.9219 20.2572 24.5136 20.3192 27.8705 19.979C31.2307 19.6385 35.4096 18.8885 40.6303 17.846C44.8373 17.2859 47.1353 18.0042 48.2508 19.2739C49.3673 20.5447 49.4722 22.5656 48.7855 25.0519C47.4203 29.9946 43.0958 36.1254 39.6714 39.5498L31.9707 46.6999L24.6978 39.5503Z" fill="#0F1314"/>
<path fill-rule="evenodd" clip-rule="evenodd" d="M23.0084 26.0161C23.1721 25.9428 23.3625 25.9633 23.5067 26.0698L31.2247 31.7656C31.3975 31.893 31.4689 32.117 31.4018 32.3209C31.3347 32.5249 31.1442 32.6627 30.9295 32.6627H22.6793C22.5394 32.6627 22.406 32.6037 22.3117 32.5003C22.2175 32.3969 22.1713 32.2586 22.1843 32.1193L22.7166 26.4235C22.7332 26.245 22.8448 26.0893 23.0084 26.0161ZM23.6246 27.3925L23.225 31.6684H29.4187L23.6246 27.3925Z" fill="#0F1314"/>
<path fill-rule="evenodd" clip-rule="evenodd" d="M41.8163 26.0161C41.6527 25.9428 41.4622 25.9633 41.318 26.0698L33.6 31.7656C33.4272 31.893 33.3558 32.117 33.4229 32.3209C33.49 32.5249 33.6805 32.6627 33.8952 32.6627H42.1454C42.2853 32.6627 42.4188 32.6037 42.513 32.5003C42.6072 32.3969 42.6534 32.2586 42.6404 32.1193L42.1081 26.4235C42.0915 26.245 41.9799 26.0893 41.8163 26.0161ZM41.2001 27.3925L41.5997 31.6684H35.406L41.2001 27.3925Z" fill="#0F1314"/>
<path fill-rule="evenodd" clip-rule="evenodd" d="M22.2925 31.8533C22.3869 31.7364 22.529 31.6685 22.6793 31.6685H42.1454C42.3004 31.6685 42.4466 31.7408 42.5406 31.8641C42.6347 31.9874 42.6658 32.1475 42.6248 32.2971L40.4957 40.0603C40.4711 40.1498 40.422 40.2306 40.3539 40.2937L32.2937 47.7524C32.0991 47.9326 31.7973 47.9282 31.608 47.7425L24.004 40.2837C23.9346 40.2156 23.8866 40.1286 23.8662 40.0335L22.1933 32.2703C22.1616 32.1234 22.1981 31.9702 22.2925 31.8533ZM23.2949 32.6627L24.8067 39.6783L31.9661 46.701L39.5744 39.6604L41.4935 32.6627H23.2949Z" fill="#0F1314"/>
<path fill-rule="evenodd" clip-rule="evenodd" d="M22.2457 31.9224C22.3336 31.7656 22.4994 31.6685 22.6793 31.6685H42.1454C42.3289 31.6685 42.4976 31.7696 42.584 31.9316C42.6704 32.0936 42.6605 32.29 42.5582 32.4425L32.3737 47.6265C32.2793 47.7672 32.1197 47.8502 31.9503 47.8466C31.7809 47.843 31.625 47.7534 31.5367 47.6089L22.2551 32.4249C22.1613 32.2714 22.1577 32.0793 22.2457 31.9224ZM23.5658 32.6627L31.9802 46.4282L41.2133 32.6627H23.5658Z" fill="#0F1314"/>
</svg>
